<mxfile host="app.diagrams.net" agent="Mozilla/5.0 (Windows NT 10.0; Win64; x64) AppleWebKit/537.36 (KHTML, like Gecko) Chrome/137.0.0.0 Safari/537.36 Edg/137.0.0.0" version="27.1.4">
  <diagram name="第 1 页" id="GgkxnlQXzHrn6yfhAk_E">
    <mxGraphModel dx="1594" dy="652" grid="0" gridSize="10" guides="1" tooltips="1" connect="1" arrows="1" fold="1" page="1" pageScale="1" pageWidth="1920" pageHeight="1200" math="0" shadow="0">
      <root>
        <mxCell id="0" />
        <mxCell id="1" parent="0" />
        <mxCell id="Thgo0oSLKI5nVbTJPh4o-1" value="Working FILES" style="rounded=0;whiteSpace=wrap;html=1;fontSize=36;" vertex="1" parent="1">
          <mxGeometry x="321" y="735" width="1177" height="174" as="geometry" />
        </mxCell>
        <mxCell id="Thgo0oSLKI5nVbTJPh4o-5" value="git config --global user.name &quot; &quot;&lt;div&gt;git config --global user.email &quot; &quot;&lt;/div&gt;&lt;div&gt;git config --global init.default branch main&lt;/div&gt;" style="rounded=0;whiteSpace=wrap;html=1;fontSize=17;" vertex="1" parent="1">
          <mxGeometry x="321" y="929" width="331" height="64" as="geometry" />
        </mxCell>
      </root>
    </mxGraphModel>
  </diagram>
</mxfile>
